<?xml version="1.0" encoding="utf-8"?>
<!-- Generator: Adobe Illustrator 19.2.1, SVG Export Plug-In . SVG Version: 6.00 Build 0)  -->
<svg version="1.1" id="Layer_1" xmlns="http://www.w3.org/2000/svg" xmlns:xlink="http://www.w3.org/1999/xlink" x="0px" y="0px"
	 viewBox="0 0 90 90" width="75" height="75" style="enable-background:new 0 0 90 90;" xml:space="preserve">
<style type="text/css">
	.st0{fill:#ffffff;}
	.st1{fill:#1CB564;}
</style>
<g>
	<path class="st0" d="M45.4,13.5c-17.1,0-31,13.9-31,30.9c0,17.1,13.9,30.9,31,30.9s31-13.9,31-30.9S62.5,13.5,45.4,13.5z
		 M45.4,72.4c-15.5,0-28-12.5-28-28s12.5-28,28-28s28,12.5,28,28S60.9,72.4,45.4,72.4z"/>
	<path class="st0" d="M43.5,13.7h3v4.8h-3V13.7z"/>
	<path class="st0" d="M43.5,70.5h3v4.6h-3V70.5z"/>
	<path class="st0" d="M14.8,42.5h4.7v3h-4.7V42.5z"/>
	<path class="st0" d="M70.5,42.5h5.4v3h-5.4V42.5z"/>
	<path class="st1" d="M43.5,21.5h3v24h-3V21.5z"/>
	<path class="st1" d="M44.5,42.5h18v3h-18V42.5z"/>
</g>
</svg>
